<svg data-v-6805eed4="" version="1.0" xmlns="http://www.w3.org/2000/svg"
    xmlns:xlink="http://www.w3.org/1999/xlink" width="100%" height="100%"
    viewBox="0 0 340.000000 250.000000" preserveAspectRatio="xMidYMid meet"
    color-interpolation-filters="sRGB" style="margin: auto;">
    <g data-v-6805eed4="" fill="#333" class="iconlinesvg-g iconlinesvg"
        transform="translate(68.16000366210938,104.99020576477051)">
        <g class="tp-name" transform="translate(0,0)">
            <g transform="translate(0, 2.386130828572499)">
                <g data-gra="path-name" fill="#333" transform="scale(1)">
                    <path d="M4.54-4.54L4.54-23.69L0-23.69L0 0L12.02 0L12.02-4.54L4.54-4.54Z"
                        transform="translate(0, 23.689557855127003)"></path>
                </g>
            </g>
            <g transform="translate(16, 2.386130828572499)">
                <g data-gra="path-name" fill="#333" transform="scale(1)">
                    <path d="M0-23.69L0 0L4.54 0L4.54-23.69L0-23.69Z"
                        transform="translate(0, 23.689557855127003)"></path>
                </g>
            </g>
            <g transform="translate(24, 2.386130828572499)">
                <g data-gra="path-name" fill="#333" transform="scale(1)">
                    <path
                        d="M11.09-23.69L11.09-10.19L5.10-23.69L0-23.69L0 0L4.54 0L4.54-13.50L10.53 0L15.63 0L15.63-23.69L11.09-23.69Z"
                        transform="translate(0, 23.689557855127003)"></path>
                </g>
            </g>
            <g transform="translate(43, 2.386130828572499)">
                <g data-gra="path-name" fill="#333" transform="scale(1)">
                    <path
                        d="M15.24-23.69L10.18-23.69L4.54-13.83L4.54-23.69L0-23.69L0 0L4.54 0L4.54-9.84L10.18 0L15.24 0L8.45-11.84L15.24-23.69Z"
                        transform="translate(0, 23.689557855127003)"></path>
                </g>
            </g>
            <g transform="translate(62, 2.386130828572499)">
                <g data-gra="path-name" fill="#333" transform="scale(1)">
                    <path
                        d="M12.04-23.69L0-23.69L0 0L12.04 0L12.04-4.54L4.54-4.54L4.54-9.58L10.53-9.58L10.53-14.11L4.54-14.11L4.54-19.15L12.04-19.15L12.04-23.69Z"
                        transform="translate(0, 23.689557855127003)"></path>
                </g>
            </g>
            <g transform="translate(78, 2.386130828572499)">
                <g data-gra="path-name" fill="#333" transform="scale(1)">
                    <path
                        d="M10.16-19.15L10.16-4.54L4.54-4.54L4.54-19.15L10.16-19.15ZM11.21-23.69L0-23.69L0 0L11.21 0L14.68-3.47L14.68-20.20L11.21-23.69Z"
                        transform="translate(0, 23.689557855127003)"></path>
                </g>
            </g>
            <g transform="translate(96, 2.386130828572499)">
                <g data-gra="path-name" fill="#333" transform="scale(1)">
                    <path
                        d="M10.16-19.15L10.16-13.53L4.54-13.53L4.54-19.15L10.16-19.15ZM11.21-23.69L0-23.69L0 0L4.54 0L4.54-9.01L10.16-9.01L10.16 0L14.68 0L14.68-10.60L13.44-11.80L14.68-13.04L14.68-20.20L11.21-23.69Z"
                        transform="translate(0, 23.689557855127003)"></path>
                </g>
            </g>
            <g transform="translate(114, 0)">
                <g>
                    <g class="imagesvg">
                        <g>
                            <rect fill="#333" fill-opacity="0" stroke-width="2" x="0" y="0"
                                width="33.369491050773064" height="28.461819512272"
                                class="image-rect"></rect>
                            <svg filter="url(#colors5258108455)" x="0" y="0"
                                width="33.369491050773064" height="28.461819512272"
                                filtersec="colorsf6328449217" class="image-svg-svg primary"
                                style="overflow: visible;">
                                <svg xmlns="http://www.w3.org/2000/svg"
                                    viewBox="0.7522094249725342 0.627500057220459 98.48859405517578 84.00350189208984">
                                    <path fill="#333333"
                                        d="M87.86 61.737l10.971 18.52c1.146 1.931-.248 4.374-2.49 4.374H74.3l13.56-22.894zM84.5 56.05L67.567 84.624H50.373l25.523-43.076L84.5 56.05zM72.535 35.87l-28.89 48.755H26.45l37.488-63.259 8.597 14.504zm-11.964-20.19L19.716 84.624H3.653c-2.243 0-3.637-2.442-2.491-4.374L47.509 2.045c1.125-1.89 3.864-1.89 4.982 0l8.08 13.634z"></path>
                                </svg>
                            </svg>
                            <defs>
                                <filter id="colors5258108455">
                                    <feColorMatrix type="matrix"
                                        values="0 0 0 0 0.19921875  0 0 0 0 0.19921875  0 0 0 0 0.19921875  0 0 0 1 0"
                                        class="icon-fecolormatrix"></feColorMatrix>
                                </filter>
                                <filter id="colorsf6328449217">
                                    <feColorMatrix type="matrix"
                                        values="0 0 0 0 0.99609375  0 0 0 0 0.99609375  0 0 0 0 0.99609375  0 0 0 1 0"
                                        class="icon-fecolormatrix"></feColorMatrix>
                                </filter>
                                <filter id="colorsb4453787014">
                                    <feColorMatrix type="matrix"
                                        values="0 0 0 0 0  0 0 0 0 0  0 0 0 0 0  0 0 0 1 0"
                                        class="icon-fecolormatrix"></feColorMatrix>
                                </filter>
                            </defs>
                        </g>
                    </g>
                </g>
            </g>
            <g transform="translate(151, 2.386130828572499)">
                <g data-gra="path-name" fill="#333" transform="scale(1)">
                    <path
                        d="M10.16-19.15L10.16-4.54L4.54-4.54L4.54-19.15L10.16-19.15ZM11.21-23.69L0-23.69L0 0L11.21 0L14.68-3.47L14.68-20.20L11.21-23.69Z"
                        transform="translate(0, 23.689557855127003)"></path>
                </g>
            </g>
            <g transform="translate(169, 2.386130828572499)">
                <g data-gra="path-name" fill="#333" transform="scale(1)">
                    <path
                        d="M8.59-15.04L10.23-8.57L6.84-8.57L8.59-15.04ZM4.54 0L5.62-4.03L11.38-4.03L12.41 0L16.93 0L10.92-23.69L6.38-23.69L0 0L4.54 0Z"
                        transform="translate(0, 23.689557855127003)"></path>
                </g>
            </g>
            <g transform="translate(189, 2.386130828572499)">
                <g data-gra="path-name" fill="#333" transform="scale(1)">
                    <path
                        d="M10.16-19.15L10.16-13.53L4.54-13.53L4.54-19.15L10.16-19.15ZM11.21-23.69L0-23.69L0 0L4.54 0L4.54-9.01L10.16-9.01L10.16 0L14.68 0L14.68-10.60L13.44-11.80L14.68-13.04L14.68-20.20L11.21-23.69Z"
                        transform="translate(0, 23.689557855127003)"></path>
                </g>
            </g>
        </g>
        <g data-gra="path-slogan" fill-rule="" class="tp-slogan" fill="#333"
            transform="translate(12.114997863769531,34.46182060241699)"><!----> <!---->
            <g transform="scale(1, 1)">
                <g transform="scale(1)">
                    <path
                        d="M3.01-2.18L1.41-2.18L1.66-3.00C1.76-3.30 1.85-3.60 1.94-3.89C2.02-4.19 2.11-4.49 2.19-4.80L2.22-4.80C2.31-4.49 2.40-4.19 2.48-3.89C2.57-3.60 2.66-3.30 2.76-3.00ZM3.19-1.63L3.69 0L4.42 0L2.61-5.36L1.84-5.36L0.02 0L0.72 0L1.23-1.63ZM7.94-4.79L7.94 0L8.63 0L8.63-4.79L10.25-4.79L10.25-5.36L6.32-5.36L6.32-4.79ZM11.21-5.36L11.21 0L14.38 0L14.38-0.58L11.89-0.58L11.89-2.52L13.92-2.52L13.92-3.10L11.89-3.10L11.89-4.79L14.30-4.79L14.30-5.36ZM15.20-2.68C15.20-2.24 15.26-1.85 15.38-1.51C15.50-1.16 15.66-0.87 15.87-0.63C16.08-0.40 16.33-0.22 16.61-0.09C16.90 0.04 17.21 0.10 17.55 0.10C17.89 0.10 18.20 0.03 18.46-0.11C18.73-0.24 18.97-0.43 19.18-0.68L18.80-1.09C18.63-0.90 18.44-0.76 18.25-0.65C18.06-0.55 17.83-0.50 17.57-0.50C17.31-0.50 17.08-0.55 16.88-0.65C16.67-0.76 16.50-0.90 16.36-1.09C16.22-1.29 16.11-1.52 16.03-1.79C15.95-2.05 15.91-2.36 15.91-2.70C15.91-3.03 15.95-3.33 16.03-3.59C16.11-3.86 16.23-4.09 16.37-4.28C16.52-4.47 16.70-4.61 16.90-4.71C17.11-4.81 17.34-4.86 17.60-4.86C17.83-4.86 18.03-4.82 18.20-4.73C18.37-4.64 18.53-4.52 18.67-4.36L19.05-4.80C18.90-4.97 18.69-5.12 18.45-5.26C18.20-5.39 17.92-5.46 17.59-5.46C17.25-5.46 16.93-5.39 16.64-5.27C16.35-5.14 16.10-4.95 15.88-4.71C15.67-4.47 15.50-4.18 15.38-3.84C15.26-3.50 15.20-3.11 15.20-2.68ZM20.18-5.36L20.18 0L20.86 0L20.86-2.52L23.35-2.52L23.35 0L24.04 0L24.04-5.36L23.35-5.36L23.35-3.11L20.86-3.11L20.86-5.36ZM27.84-2.82L27.84-4.81L28.73-4.81C29.15-4.81 29.48-4.74 29.70-4.60C29.92-4.46 30.03-4.21 30.03-3.86C30.03-3.51 29.92-3.25 29.70-3.08C29.48-2.90 29.15-2.82 28.73-2.82ZM30.10 0L30.87 0L29.51-2.34C29.88-2.43 30.17-2.60 30.39-2.85C30.60-3.10 30.71-3.44 30.71-3.86C30.71-4.13 30.67-4.37 30.57-4.56C30.48-4.75 30.35-4.90 30.19-5.02C30.02-5.14 29.82-5.23 29.59-5.28C29.36-5.33 29.11-5.36 28.83-5.36L27.16-5.36L27.16 0L27.84 0L27.84-2.26L28.81-2.26ZM34.10-2.18L32.49-2.18L32.75-3.00C32.84-3.30 32.94-3.60 33.02-3.89C33.11-4.19 33.20-4.49 33.28-4.80L33.31-4.80C33.40-4.49 33.48-4.19 33.57-3.89C33.66-3.60 33.75-3.30 33.85-3.00ZM34.27-1.63L34.78 0L35.51 0L33.69-5.36L32.93-5.36L31.11 0L31.81 0L32.32-1.63ZM36.27-5.36L36.27 0L37.64 0C38.04 0 38.40-0.06 38.71-0.18C39.02-0.31 39.28-0.48 39.50-0.71C39.71-0.95 39.87-1.23 39.98-1.56C40.09-1.90 40.14-2.28 40.14-2.70C40.14-3.56 39.93-4.22 39.50-4.67C39.06-5.13 38.44-5.36 37.61-5.36ZM37.56-0.56L36.95-0.56L36.95-4.80L37.56-4.80C38.19-4.80 38.66-4.62 38.97-4.26C39.28-3.91 39.44-3.39 39.44-2.70C39.44-2.02 39.28-1.50 38.97-1.12C38.66-0.74 38.19-0.56 37.56-0.56ZM43.49-2.18L41.88-2.18L42.13-3.00C42.23-3.30 42.32-3.60 42.41-3.89C42.50-4.19 42.58-4.49 42.67-4.80L42.70-4.80C42.79-4.49 42.87-4.19 42.96-3.89C43.05-3.60 43.14-3.30 43.24-3.00ZM43.66-1.63L44.17 0L44.90 0L43.08-5.36L42.31-5.36L40.50 0L41.19 0L41.71-1.63ZM46.33-2.82L46.33-4.81L47.23-4.81C47.65-4.81 47.97-4.74 48.20-4.60C48.42-4.46 48.53-4.21 48.53-3.86C48.53-3.51 48.42-3.25 48.20-3.08C47.97-2.90 47.65-2.82 47.23-2.82ZM48.60 0L49.36 0L48.01-2.34C48.37-2.43 48.67-2.60 48.88-2.85C49.10-3.10 49.21-3.44 49.21-3.86C49.21-4.13 49.16-4.37 49.07-4.56C48.98-4.75 48.85-4.90 48.68-5.02C48.52-5.14 48.32-5.23 48.09-5.28C47.85-5.33 47.60-5.36 47.33-5.36L45.66-5.36L45.66 0L46.33 0L46.33-2.26L47.31-2.26ZM52.05-5.36L52.05 0L52.73 0L52.73-2.40L54.77-2.40L54.77-2.97L52.73-2.97L52.73-4.79L55.14-4.79L55.14-5.36ZM57.98 0.10C58.32 0.10 58.63 0.03 58.91-0.10C59.19-0.23 59.43-0.42 59.64-0.66C59.84-0.90 60.00-1.19 60.11-1.54C60.22-1.89 60.28-2.27 60.28-2.70C60.28-3.13 60.22-3.51 60.11-3.85C60.00-4.19 59.84-4.48 59.64-4.72C59.43-4.96 59.19-5.14 58.91-5.27C58.63-5.39 58.32-5.46 57.98-5.46C57.65-5.46 57.34-5.40 57.06-5.27C56.78-5.14 56.54-4.96 56.33-4.73C56.13-4.49 55.98-4.20 55.86-3.86C55.75-3.52 55.70-3.13 55.70-2.70C55.70-2.27 55.75-1.89 55.86-1.54C55.98-1.19 56.13-0.90 56.33-0.66C56.54-0.42 56.78-0.23 57.06-0.10C57.34 0.03 57.65 0.10 57.98 0.10ZM57.98-0.50C57.74-0.50 57.53-0.55 57.34-0.65C57.14-0.76 56.98-0.91 56.84-1.10C56.70-1.29 56.59-1.52 56.51-1.79C56.44-2.06 56.40-2.37 56.40-2.70C56.40-3.04 56.44-3.34 56.51-3.60C56.59-3.87 56.70-4.10 56.84-4.28C56.98-4.47 57.14-4.61 57.34-4.71C57.53-4.81 57.74-4.86 57.98-4.86C58.22-4.86 58.44-4.81 58.63-4.71C58.83-4.61 58.99-4.47 59.13-4.28C59.27-4.10 59.38-3.87 59.46-3.60C59.53-3.34 59.57-3.04 59.57-2.70C59.57-2.37 59.53-2.06 59.46-1.79C59.38-1.52 59.27-1.29 59.13-1.10C58.99-0.91 58.83-0.76 58.63-0.65C58.44-0.55 58.22-0.50 57.98-0.50ZM62.11-2.82L62.11-4.81L63.01-4.81C63.43-4.81 63.75-4.74 63.97-4.60C64.20-4.46 64.31-4.21 64.31-3.86C64.31-3.51 64.20-3.25 63.97-3.08C63.75-2.90 63.43-2.82 63.01-2.82ZM64.37 0L65.14 0L63.79-2.34C64.15-2.43 64.44-2.60 64.66-2.85C64.88-3.10 64.99-3.44 64.99-3.86C64.99-4.13 64.94-4.37 64.85-4.56C64.76-4.75 64.63-4.90 64.46-5.02C64.29-5.14 64.09-5.23 63.86-5.28C63.63-5.33 63.38-5.36 63.11-5.36L61.43-5.36L61.43 0L62.11 0L62.11-2.26L63.08-2.26ZM68.70-2.08L68.70 0L69.38 0L69.38-2.08L70.99-5.36L70.28-5.36L69.59-3.85C69.51-3.65 69.43-3.46 69.33-3.27C69.24-3.08 69.15-2.88 69.06-2.68L69.02-2.68C68.93-2.88 68.84-3.08 68.76-3.27C68.68-3.46 68.60-3.65 68.51-3.85L67.81-5.36L67.09-5.36ZM73.58 0.10C73.92 0.10 74.23 0.03 74.51-0.10C74.79-0.23 75.03-0.42 75.24-0.66C75.44-0.90 75.60-1.19 75.71-1.54C75.82-1.89 75.88-2.27 75.88-2.70C75.88-3.13 75.82-3.51 75.71-3.85C75.60-4.19 75.44-4.48 75.24-4.72C75.03-4.96 74.79-5.14 74.51-5.27C74.23-5.39 73.92-5.46 73.58-5.46C73.24-5.46 72.93-5.40 72.65-5.27C72.37-5.14 72.13-4.96 71.93-4.73C71.73-4.49 71.57-4.20 71.46-3.86C71.35-3.52 71.29-3.13 71.29-2.70C71.29-2.27 71.35-1.89 71.46-1.54C71.57-1.19 71.73-0.90 71.93-0.66C72.13-0.42 72.37-0.23 72.65-0.10C72.93 0.03 73.24 0.10 73.58 0.10ZM73.58-0.50C73.34-0.50 73.13-0.55 72.93-0.65C72.74-0.76 72.57-0.91 72.43-1.10C72.29-1.29 72.19-1.52 72.11-1.79C72.03-2.06 72.00-2.37 72.00-2.70C72.00-3.04 72.03-3.34 72.11-3.60C72.19-3.87 72.29-4.10 72.43-4.28C72.57-4.47 72.74-4.61 72.93-4.71C73.13-4.81 73.34-4.86 73.58-4.86C73.82-4.86 74.04-4.81 74.23-4.71C74.42-4.61 74.59-4.47 74.73-4.28C74.87-4.10 74.98-3.87 75.05-3.60C75.13-3.34 75.17-3.04 75.17-2.70C75.17-2.37 75.13-2.06 75.05-1.79C74.98-1.52 74.87-1.29 74.73-1.10C74.59-0.91 74.42-0.76 74.23-0.65C74.04-0.55 73.82-0.50 73.58-0.50ZM77.01-5.36L77.01-2.21C77.01-1.78 77.05-1.42 77.15-1.13C77.25-0.83 77.39-0.60 77.56-0.41C77.73-0.23 77.93-0.10 78.17-0.02C78.41 0.06 78.66 0.10 78.93 0.10C79.21 0.10 79.46 0.06 79.69-0.02C79.93-0.10 80.13-0.23 80.30-0.41C80.47-0.60 80.61-0.83 80.71-1.13C80.80-1.42 80.85-1.78 80.85-2.21L80.85-5.36L80.20-5.36L80.20-2.20C80.20-1.88 80.17-1.61 80.10-1.39C80.04-1.17 79.95-1.00 79.83-0.87C79.72-0.74 79.58-0.64 79.43-0.58C79.28-0.53 79.11-0.50 78.93-0.50C78.76-0.50 78.60-0.53 78.44-0.58C78.29-0.64 78.16-0.74 78.05-0.87C77.94-1.00 77.85-1.17 77.78-1.39C77.72-1.61 77.68-1.88 77.68-2.20L77.68-5.36ZM82.98-2.82L82.98-4.81L83.88-4.81C84.30-4.81 84.62-4.74 84.84-4.60C85.06-4.46 85.18-4.21 85.18-3.86C85.18-3.51 85.06-3.25 84.84-3.08C84.62-2.90 84.30-2.82 83.88-2.82ZM85.24 0L86.01 0L84.65-2.34C85.02-2.43 85.31-2.60 85.53-2.85C85.74-3.10 85.85-3.44 85.85-3.86C85.85-4.13 85.81-4.37 85.71-4.56C85.62-4.75 85.49-4.90 85.33-5.02C85.16-5.14 84.96-5.23 84.73-5.28C84.50-5.33 84.25-5.36 83.97-5.36L82.30-5.36L82.30 0L82.98 0L82.98-2.26L83.95-2.26ZM88.70-5.36L88.70 0L89.37 0L89.37-2.12L90.34-2.12C90.63-2.12 90.90-2.16 91.14-2.23C91.39-2.29 91.59-2.40 91.77-2.53C91.94-2.67 92.08-2.84 92.17-3.05C92.27-3.25 92.32-3.50 92.32-3.78C92.32-4.08 92.27-4.32 92.17-4.53C92.08-4.73 91.94-4.89 91.77-5.01C91.60-5.14 91.39-5.22 91.15-5.28C90.90-5.33 90.63-5.36 90.34-5.36ZM90.26-2.68L89.37-2.68L89.37-4.81L90.26-4.81C90.72-4.81 91.07-4.74 91.29-4.59C91.52-4.44 91.64-4.17 91.64-3.78C91.64-3.40 91.53-3.12 91.30-2.95C91.07-2.77 90.73-2.68 90.26-2.68ZM94.08-2.82L94.08-4.81L94.98-4.81C95.40-4.81 95.72-4.74 95.94-4.60C96.17-4.46 96.28-4.21 96.28-3.86C96.28-3.51 96.17-3.25 95.94-3.08C95.72-2.90 95.40-2.82 94.98-2.82ZM96.34 0L97.11 0L95.76-2.34C96.12-2.43 96.41-2.60 96.63-2.85C96.85-3.10 96.96-3.44 96.96-3.86C96.96-4.13 96.91-4.37 96.82-4.56C96.73-4.75 96.60-4.90 96.43-5.02C96.26-5.14 96.07-5.23 95.83-5.28C95.60-5.33 95.35-5.36 95.08-5.36L93.40-5.36L93.40 0L94.08 0L94.08-2.26L95.05-2.26ZM100.13 0.10C100.46 0.10 100.77 0.03 101.05-0.10C101.33-0.23 101.58-0.42 101.78-0.66C101.99-0.90 102.14-1.19 102.26-1.54C102.37-1.89 102.42-2.27 102.42-2.70C102.42-3.13 102.37-3.51 102.26-3.85C102.14-4.19 101.99-4.48 101.78-4.72C101.58-4.96 101.33-5.14 101.05-5.27C100.77-5.39 100.46-5.46 100.13-5.46C99.79-5.46 99.48-5.40 99.20-5.27C98.92-5.14 98.68-4.96 98.48-4.73C98.28-4.49 98.12-4.20 98.01-3.86C97.90-3.52 97.84-3.13 97.84-2.70C97.84-2.27 97.90-1.89 98.01-1.54C98.12-1.19 98.28-0.90 98.48-0.66C98.68-0.42 98.92-0.23 99.20-0.10C99.48 0.03 99.79 0.10 100.13 0.10ZM100.13-0.50C99.89-0.50 99.67-0.55 99.48-0.65C99.28-0.76 99.12-0.91 98.98-1.10C98.84-1.29 98.73-1.52 98.66-1.79C98.58-2.06 98.54-2.37 98.54-2.70C98.54-3.04 98.58-3.34 98.66-3.60C98.73-3.87 98.84-4.10 98.98-4.28C99.12-4.47 99.28-4.61 99.48-4.71C99.67-4.81 99.89-4.86 100.13-4.86C100.37-4.86 100.58-4.81 100.78-4.71C100.97-4.61 101.14-4.47 101.28-4.28C101.41-4.10 101.52-3.87 101.60-3.60C101.67-3.34 101.71-3.04 101.71-2.70C101.71-2.37 101.67-2.06 101.60-1.79C101.52-1.52 101.41-1.29 101.28-1.10C101.14-0.91 100.97-0.76 100.78-0.65C100.58-0.55 100.37-0.50 100.13-0.50ZM103.57-5.36L103.57 0L104.25 0L104.25-2.40L106.30-2.40L106.30-2.97L104.25-2.97L104.25-4.79L106.66-4.79L106.66-5.36ZM107.61-5.36L107.61 0L110.78 0L110.78-0.58L108.29-0.58L108.29-2.52L110.32-2.52L110.32-3.10L108.29-3.10L108.29-4.79L110.70-4.79L110.70-5.36ZM111.93-1.17L111.52-0.69C111.76-0.45 112.04-0.26 112.36-0.11C112.68 0.03 113.03 0.10 113.40 0.10C113.69 0.10 113.94 0.06 114.16-0.02C114.39-0.10 114.58-0.21 114.74-0.35C114.89-0.49 115.01-0.65 115.10-0.83C115.18-1.02 115.23-1.22 115.23-1.43C115.23-1.63 115.20-1.80 115.14-1.95C115.08-2.10 115.01-2.23 114.91-2.34C114.81-2.45 114.69-2.55 114.56-2.63C114.42-2.72 114.28-2.79 114.12-2.86L113.36-3.19C113.25-3.23 113.15-3.28 113.04-3.33C112.94-3.38 112.85-3.44 112.76-3.51C112.67-3.58 112.60-3.66 112.55-3.75C112.50-3.84 112.47-3.95 112.47-4.08C112.47-4.32 112.56-4.51 112.75-4.65C112.93-4.79 113.17-4.86 113.47-4.86C113.72-4.86 113.94-4.82 114.14-4.73C114.34-4.64 114.52-4.51 114.69-4.35L115.05-4.80C114.86-4.99 114.63-5.15 114.36-5.27C114.09-5.40 113.79-5.46 113.47-5.46C113.22-5.46 113.00-5.42 112.80-5.35C112.59-5.28 112.41-5.18 112.26-5.05C112.11-4.93 112.00-4.77 111.91-4.60C111.83-4.43 111.79-4.24 111.79-4.04C111.79-3.84 111.82-3.67 111.88-3.52C111.95-3.37 112.03-3.24 112.14-3.13C112.24-3.02 112.36-2.93 112.49-2.85C112.62-2.78 112.75-2.71 112.87-2.66L113.64-2.32C113.77-2.26 113.88-2.20 113.99-2.15C114.10-2.09 114.19-2.03 114.27-1.96C114.35-1.90 114.42-1.82 114.46-1.72C114.51-1.62 114.53-1.51 114.53-1.37C114.53-1.11 114.43-0.90 114.24-0.74C114.04-0.58 113.77-0.50 113.41-0.50C113.13-0.50 112.87-0.56 112.61-0.68C112.35-0.80 112.12-0.97 111.93-1.17ZM116.18-1.17L115.77-0.69C116.01-0.45 116.29-0.26 116.61-0.11C116.93 0.03 117.28 0.10 117.65 0.10C117.94 0.10 118.19 0.06 118.41-0.02C118.64-0.10 118.83-0.21 118.98-0.35C119.14-0.49 119.26-0.65 119.35-0.83C119.43-1.02 119.47-1.22 119.47-1.43C119.47-1.63 119.45-1.80 119.39-1.95C119.33-2.10 119.25-2.23 119.16-2.34C119.06-2.45 118.94-2.55 118.80-2.63C118.67-2.72 118.52-2.79 118.37-2.86L117.61-3.19C117.50-3.23 117.40-3.28 117.29-3.33C117.19-3.38 117.09-3.44 117.01-3.51C116.92-3.58 116.85-3.66 116.80-3.75C116.75-3.84 116.72-3.95 116.72-4.08C116.72-4.32 116.81-4.51 116.99-4.65C117.18-4.79 117.42-4.86 117.72-4.86C117.97-4.86 118.19-4.82 118.39-4.73C118.59-4.64 118.77-4.51 118.94-4.35L119.30-4.80C119.11-4.99 118.88-5.15 118.61-5.27C118.34-5.40 118.04-5.46 117.72-5.46C117.47-5.46 117.25-5.42 117.04-5.35C116.84-5.28 116.66-5.18 116.51-5.05C116.36-4.93 116.25-4.77 116.16-4.60C116.08-4.43 116.03-4.24 116.03-4.04C116.03-3.84 116.07-3.67 116.13-3.52C116.20-3.37 116.28-3.24 116.39-3.13C116.49-3.02 116.61-2.93 116.74-2.85C116.87-2.78 117.00-2.71 117.12-2.66L117.89-2.32C118.01-2.26 118.13-2.20 118.24-2.15C118.35-2.09 118.44-2.03 118.52-1.96C118.60-1.90 118.66-1.82 118.71-1.72C118.76-1.62 118.78-1.51 118.78-1.37C118.78-1.11 118.68-0.90 118.49-0.74C118.29-0.58 118.01-0.50 117.66-0.50C117.38-0.50 117.11-0.56 116.86-0.68C116.60-0.80 116.37-0.97 116.18-1.17ZM120.53-5.36L120.53 0L121.21 0L121.21-5.36ZM124.65 0.10C124.99 0.10 125.30 0.03 125.58-0.10C125.86-0.23 126.10-0.42 126.31-0.66C126.51-0.90 126.67-1.19 126.78-1.54C126.89-1.89 126.95-2.27 126.95-2.70C126.95-3.13 126.89-3.51 126.78-3.85C126.67-4.19 126.51-4.48 126.31-4.72C126.10-4.96 125.86-5.14 125.58-5.27C125.30-5.39 124.99-5.46 124.65-5.46C124.32-5.46 124.01-5.40 123.73-5.27C123.45-5.14 123.21-4.96 123.00-4.73C122.80-4.49 122.65-4.20 122.53-3.86C122.42-3.52 122.37-3.13 122.37-2.70C122.37-2.27 122.42-1.89 122.53-1.54C122.65-1.19 122.80-0.90 123.00-0.66C123.21-0.42 123.45-0.23 123.73-0.10C124.01 0.03 124.32 0.10 124.65 0.10ZM124.65-0.50C124.41-0.50 124.20-0.55 124.00-0.65C123.81-0.76 123.65-0.91 123.51-1.10C123.37-1.29 123.26-1.52 123.18-1.79C123.11-2.06 123.07-2.37 123.07-2.70C123.07-3.04 123.11-3.34 123.18-3.60C123.26-3.87 123.37-4.10 123.51-4.28C123.65-4.47 123.81-4.61 124.00-4.71C124.20-4.81 124.41-4.86 124.65-4.86C124.89-4.86 125.11-4.81 125.30-4.71C125.50-4.61 125.66-4.47 125.80-4.28C125.94-4.10 126.05-3.87 126.13-3.60C126.20-3.34 126.24-3.04 126.24-2.70C126.24-2.37 126.20-2.06 126.13-1.79C126.05-1.52 125.94-1.29 125.80-1.10C125.66-0.91 125.50-0.76 125.30-0.65C125.11-0.55 124.89-0.50 124.65-0.50ZM128.10-5.36L128.10 0L128.75 0L128.75-2.80C128.75-3.09 128.74-3.37 128.72-3.65C128.70-3.93 128.68-4.20 128.66-4.48L128.69-4.48L129.27-3.37L131.22 0L131.92 0L131.92-5.36L131.27-5.36L131.27-2.59C131.27-2.31 131.28-2.02 131.30-1.73C131.32-1.44 131.34-1.15 131.35-0.88L131.32-0.88L130.74-1.99L128.80-5.36ZM135.67-2.18L134.06-2.18L134.31-3.00C134.41-3.30 134.50-3.60 134.59-3.89C134.68-4.19 134.76-4.49 134.84-4.80L134.88-4.80C134.96-4.49 135.05-4.19 135.14-3.89C135.22-3.60 135.32-3.30 135.41-3.00ZM135.84-1.63L136.35 0L137.07 0L135.26-5.36L134.49-5.36L132.68 0L133.37 0L133.89-1.63ZM137.83-5.36L137.83 0L140.86 0L140.86-0.58L138.51-0.58L138.51-5.36ZM143.45-5.36L143.45 0L144.10 0L144.10-2.80C144.10-3.09 144.09-3.37 144.07-3.65C144.05-3.93 144.03-4.20 144.01-4.48L144.04-4.48L144.62-3.37L146.57 0L147.27 0L147.27-5.36L146.62-5.36L146.62-2.59C146.62-2.31 146.63-2.02 146.65-1.73C146.67-1.44 146.69-1.15 146.71-0.88L146.67-0.88L146.09-1.99L144.16-5.36ZM148.74-5.36L148.74 0L151.91 0L151.91-0.58L149.42-0.58L149.42-2.52L151.45-2.52L151.45-3.10L149.42-3.10L149.42-4.79L151.83-4.79L151.83-5.36ZM154.16-4.79L154.16 0L154.84 0L154.84-4.79L156.46-4.79L156.46-5.36L152.54-5.36L152.54-4.79ZM156.88-5.36L158.01 0L158.82 0L159.62-3.23C159.66-3.43 159.70-3.64 159.75-3.84C159.80-4.03 159.84-4.24 159.88-4.44L159.92-4.44C159.96-4.24 160.00-4.03 160.04-3.84C160.08-3.64 160.13-3.43 160.18-3.23L160.99 0L161.80 0L162.92-5.36L162.26-5.36L161.70-2.44C161.64-2.15 161.59-1.87 161.54-1.58C161.49-1.29 161.45-1.00 161.40-0.71L161.36-0.71C161.30-1.00 161.23-1.30 161.17-1.59C161.10-1.87 161.04-2.16 160.97-2.44L160.23-5.36L159.61-5.36L158.86-2.44C158.80-2.15 158.74-1.87 158.68-1.58C158.61-1.29 158.55-1.00 158.49-0.71L158.45-0.71C158.41-1.00 158.35-1.29 158.30-1.58C158.25-1.86 158.19-2.15 158.14-2.44L157.58-5.36ZM165.78 0.10C166.11 0.10 166.42 0.03 166.70-0.10C166.98-0.23 167.23-0.42 167.43-0.66C167.63-0.90 167.79-1.19 167.90-1.54C168.02-1.89 168.07-2.27 168.07-2.70C168.07-3.13 168.02-3.51 167.90-3.85C167.79-4.19 167.63-4.48 167.43-4.72C167.23-4.96 166.98-5.14 166.70-5.27C166.42-5.39 166.11-5.46 165.78-5.46C165.44-5.46 165.13-5.40 164.85-5.27C164.57-5.14 164.33-4.96 164.13-4.73C163.92-4.49 163.77-4.20 163.66-3.86C163.54-3.52 163.49-3.13 163.49-2.70C163.49-2.27 163.54-1.89 163.66-1.54C163.77-1.19 163.92-0.90 164.13-0.66C164.33-0.42 164.57-0.23 164.85-0.10C165.13 0.03 165.44 0.10 165.78 0.10ZM165.78-0.50C165.54-0.50 165.32-0.55 165.13-0.65C164.93-0.76 164.77-0.91 164.63-1.10C164.49-1.29 164.38-1.52 164.30-1.79C164.23-2.06 164.19-2.37 164.19-2.70C164.19-3.04 164.23-3.34 164.30-3.60C164.38-3.87 164.49-4.10 164.63-4.28C164.77-4.47 164.93-4.61 165.13-4.71C165.32-4.81 165.54-4.86 165.78-4.86C166.02-4.86 166.23-4.81 166.43-4.71C166.62-4.61 166.78-4.47 166.92-4.28C167.06-4.10 167.17-3.87 167.25-3.60C167.32-3.34 167.36-3.04 167.36-2.70C167.36-2.37 167.32-2.06 167.25-1.79C167.17-1.52 167.06-1.29 166.92-1.10C166.78-0.91 166.62-0.76 166.43-0.65C166.23-0.55 166.02-0.50 165.78-0.50ZM169.90-2.82L169.90-4.81L170.80-4.81C171.22-4.81 171.54-4.74 171.76-4.60C171.99-4.46 172.10-4.21 172.10-3.86C172.10-3.51 171.99-3.25 171.76-3.08C171.54-2.90 171.22-2.82 170.80-2.82ZM172.16 0L172.93 0L171.58-2.34C171.94-2.43 172.23-2.60 172.45-2.85C172.67-3.10 172.78-3.44 172.78-3.86C172.78-4.13 172.73-4.37 172.64-4.56C172.55-4.75 172.42-4.90 172.25-5.02C172.08-5.14 171.89-5.23 171.65-5.28C171.42-5.33 171.17-5.36 170.90-5.36L169.22-5.36L169.22 0L169.90 0L169.90-2.26L170.87-2.26ZM173.97-5.36L173.97 0L174.65 0L174.65-1.70L175.57-2.79L177.17 0L177.93 0L176.00-3.32L177.67-5.36L176.90-5.36L174.67-2.67L174.65-2.67L174.65-5.36ZM178.50-0.41C178.50-0.26 178.54-0.14 178.64-0.04C178.73 0.05 178.85 0.10 178.99 0.10C179.12 0.10 179.23 0.05 179.33-0.04C179.42-0.14 179.47-0.26 179.47-0.41C179.47-0.57 179.42-0.69 179.33-0.79C179.23-0.88 179.12-0.93 178.99-0.93C178.85-0.93 178.73-0.88 178.64-0.79C178.54-0.69 178.50-0.57 178.50-0.41Z"
                        transform="translate(-0.024510916435931188, 5.457764059734012)"></path>
                </g>
            </g>
        </g>
    </g>
</svg>
